<?xml version="1.0" encoding="UTF-8" standalone="no"?>
<svg
   xmlns:dc="http://purl.org/dc/elements/1.1/"
   xmlns:cc="http://creativecommons.org/ns#"
   xmlns:rdf="http://www.w3.org/1999/02/22-rdf-syntax-ns#"
   xmlns:svg="http://www.w3.org/2000/svg"
   xmlns="http://www.w3.org/2000/svg"
   xmlns:sodipodi="http://sodipodi.sourceforge.net/DTD/sodipodi-0.dtd"
   xmlns:inkscape="http://www.inkscape.org/namespaces/inkscape"
   version="1.1"
   x="0px"
   y="0px"
   viewBox="0 0 94.923996 79.374999"
   xml:space="preserve"
   id="svg28"
   sodipodi:docname="noun_Question_2696237.svg"
   width="94.923996"
   height="79.375"
   inkscape:version="0.92.2 5c3e80d, 2017-08-06"><metadata
     id="metadata34"><rdf:RDF><cc:Work
         rdf:about=""><dc:format>image/svg+xml</dc:format><dc:type
           rdf:resource="http://purl.org/dc/dcmitype/StillImage" /><dc:title></dc:title></cc:Work></rdf:RDF></metadata><defs
     id="defs32" /><sodipodi:namedview
     pagecolor="#ffffff"
     bordercolor="#666666"
     borderopacity="1"
     objecttolerance="10"
     gridtolerance="10"
     guidetolerance="10"
     inkscape:pageopacity="0"
     inkscape:pageshadow="2"
     inkscape:window-width="1288"
     inkscape:window-height="761"
     id="namedview30"
     showgrid="false"
     fit-margin-top="0"
     fit-margin-left="0"
     fit-margin-right="0"
     fit-margin-bottom="0"
     inkscape:zoom="0.944"
     inkscape:cx="32.219208"
     inkscape:cy="-30.59389"
     inkscape:window-x="0"
     inkscape:window-y="0"
     inkscape:window-maximized="0"
     inkscape:current-layer="svg28" /><g
     id="g10"
     transform="translate(-2.525,-10.225)"><path
       d="m 5273.1,2400.1 v -2 c 0,-2.8 -5,-4 -9.7,-4 -4.7,0 -9.7,1.3 -9.7,4 v 2 c 0,1.8 0.7,3.6 2,4.9 l 5,4.9 c 0.3,0.3 0.4,0.6 0.4,1 v 6.4 c 0,0.4 0.2,0.7 0.6,0.8 l 2.9,0.9 c 0.5,0.1 1,-0.2 1,-0.8 v -7.2 c 0,-0.4 0.2,-0.7 0.4,-1 l 5.1,-5 c 1.3,-1.3 2,-3.1 2,-4.9 z m -9.7,-0.1 c -4.8,0 -7.4,-1.3 -7.5,-1.8 v 0 c 0.1,-0.5 2.7,-1.8 7.5,-1.8 4.8,0 7.3,1.3 7.5,1.8 -0.2,0.5 -2.7,1.8 -7.5,1.8 z"
       id="path2"
       inkscape:connector-curvature="0" /><path
       d="m 5268.4,2410.3 c -0.6,0 -1,0.4 -1,1 0,0.6 0.4,1 1,1 h 4.3 c 0.6,0 1,-0.4 1,-1 0,-0.6 -0.4,-1 -1,-1 z"
       id="path4"
       inkscape:connector-curvature="0" /><path
       d="m 5272.7,2413.7 h -4.3 c -0.6,0 -1,0.4 -1,1 0,0.6 0.4,1 1,1 h 4.3 c 0.6,0 1,-0.4 1,-1 0,-0.6 -0.4,-1 -1,-1 z"
       id="path6"
       inkscape:connector-curvature="0" /><path
       d="m 5272.7,2417 h -4.3 c -0.6,0 -1,0.4 -1,1 0,0.6 0.4,1 1,1 h 4.3 c 0.6,0 1,-0.4 1,-1 0,-0.5 -0.4,-1 -1,-1 z"
       id="path8"
       inkscape:connector-curvature="0" /></g><g
     id="g18"
     transform="translate(-2.525,-10.225)"><circle
       transform="matrix(0.00880285,-1,1,0.00880285,25.4104,98.4937)"
       cx="62.400002"
       cy="36.400002"
       id="ellipse12"
       r="12.7" /><path
       d="m 93.7,29.8 c -2.9,-0.9 -6,0.7 -6.9,3.5 l -2.9,9.1 c -1.5,4.5 -4.9,8.1 -9.4,9.7 -2.1,0.8 -4.3,1.1 -6.5,1.1 H 55.6 c -5.2,0 -10,2.7 -12.8,7.1 l -12.5,20 c -1.6,2.6 -0.8,5.9 1.7,7.5 0.9,0.6 1.9,0.8 2.9,0.8 1.8,0 3.6,-0.9 4.7,-2.6 l 9.6,-15.3 v 15.5 c 0,1.9 1.5,3.4 3.4,3.4 h 19.5 c 1.9,0 3.4,-1.5 3.4,-3.4 v -23 c 0.9,-0.2 1.8,-0.4 2.7,-0.7 7.7,-2.8 13.5,-8.9 16,-16.6 l 2.9,-9.1 c 1.1,-3 -0.5,-6.1 -3.4,-7 z"
       id="path14"
       inkscape:connector-curvature="0" /><path
       d="m 39.5,50 c 1.7,0.6 3.3,-1.1 2.8,-2.8 L 39.5,39 C 43.4,31.6 42.3,22.2 36.1,16 28.4,8.3 16,8.3 8.3,16 c -7.7,7.7 -7.7,20.1 0,27.8 6.2,6.2 15.6,7.3 23,3.4 z m -17,-8.6 c -1.3,0 -2.4,-1.1 -2.4,-2.4 0,-1.3 1.1,-2.4 2.4,-2.4 1.3,0 2.4,1.1 2.4,2.4 0,1.3 -1.1,2.4 -2.4,2.4 z m 5.8,-12.5 c -0.9,1.3 -1.9,2 -2.6,2.5 -0.8,0.6 -1.1,0.8 -1.2,2.1 0,0.6 -0.5,1 -1.1,1 h -1.7 c -0.7,0 -1.2,-0.6 -1.1,-1.2 0.2,-3 1.4,-4.1 2.9,-5.2 0.6,-0.4 1.1,-0.8 1.7,-1.6 0.6,-0.8 0.6,-1.8 0.2,-2.7 -0.3,-0.6 -1.1,-1.6 -3.1,-1.6 -2.5,0 -3.3,1.6 -3.5,2.8 -0.1,0.5 -0.6,0.9 -1.1,0.9 h -1.8 c -0.7,0 -1.2,-0.6 -1.1,-1.3 0.5,-3.3 2.9,-6.5 7.5,-6.5 2.9,0 5.4,1.4 6.6,3.8 1.1,2.4 0.9,5 -0.6,7 z"
       id="path16"
       inkscape:connector-curvature="0" /></g></svg>