<?xml version="1.0" encoding="UTF-8" standalone="no"?>
<svg
   xmlns:dc="http://purl.org/dc/elements/1.1/"
   xmlns:cc="http://creativecommons.org/ns#"
   xmlns:rdf="http://www.w3.org/1999/02/22-rdf-syntax-ns#"
   xmlns:svg="http://www.w3.org/2000/svg"
   xmlns="http://www.w3.org/2000/svg"
   enable-background="new"
   id="svg8"
   version="1.1"
   viewBox="0 0 291.39441 135.81944"
   height="135.81944mm"
   width="291.39441mm">
  <defs
     id="defs2">
    <filter
       id="filter1556"
       style="color-interpolation-filters:sRGB;">
      <feGaussianBlur
         id="feGaussianBlur1550"
         result="blur"
         stdDeviation="0.3" />
      <feComposite
         id="feComposite1552"
         result="composite1"
         operator="in"
         in2="blur"
         in="SourceGraphic" />
      <feComposite
         id="feComposite1554"
         result="composite2"
         operator="in"
         k2="1"
         in2="composite1"
         in="composite1" />
    </filter>
  </defs>
  <metadata
     id="metadata5">
    <rdf:RDF>
      <cc:Work
         rdf:about="">
        <dc:format>image/svg+xml</dc:format>
        <dc:type
           rdf:resource="http://purl.org/dc/dcmitype/StillImage" />
        <dc:title></dc:title>
      </cc:Work>
    </rdf:RDF>
  </metadata>
  <g
     style="display:inline;"
     id="layer2">
    <path
       id="path1315"
       d="m 139.56394,129.4373 c -2.42312,-0.98303 -5.29372,-2.96093 -6.79129,-4.67935 -2.75178,-3.15756 -4.20528,-7.8778 -3.65485,-11.86906 0.2585,-1.8744 1.18004,-4.58612 1.55853,-4.58612 0.10152,0 0.65816,0.95451 1.23698,2.12113 0.57882,1.16662 1.7833,3.01839 2.67663,4.11504 1.9675,2.41532 2.39445,3.21201 3.18286,5.93932 0.9577,3.31289 2.03802,5.4737 3.83383,7.66826 l 1.65989,2.02848 -0.98952,-0.0192 c -0.54423,-0.0106 -1.76511,-0.33389 -2.71306,-0.71846 z m 10.17899,-1.23571 c 1.83835,-2.24682 2.91563,-4.39193 3.87868,-7.72333 0.78841,-2.72731 1.21536,-3.524 3.18286,-5.93932 0.89333,-1.09665 2.09781,-2.94842 2.67663,-4.11504 0.57882,-1.16662 1.13546,-2.12113 1.23698,-2.12113 0.37849,0 1.30003,2.71172 1.55853,4.58612 0.62347,4.52081 -1.07559,9.29407 -4.50142,12.64607 -2.23668,2.18847 -5.98284,4.24663 -8.29367,4.55658 l -1.44335,0.19359 z m -6.13789,-1.30453 c -2.88936,-3.82693 -4.07424,-7.83078 -3.84803,-13.00293 0.12351,-2.82405 0.29064,-3.58036 1.09411,-4.95139 0.95849,-1.63553 4.05125,-4.52052 4.84608,-4.52052 0.79484,0 3.8876,2.88499 4.84609,4.52052 0.80347,1.37103 0.9706,2.12734 1.09411,4.95139 0.16166,3.69615 -0.27783,6.24546 -1.58784,9.21056 -1.15488,2.61399 -3.49688,5.65919 -4.35236,5.65919 -0.4115,0 -1.24259,-0.74157 -2.09216,-1.86682 z M 33.774916,116.23789 C 19.714077,113.55844 10.948361,104.27956 10.948361,92.074997 c 0,-5.525604 1.582675,-9.923046 4.836156,-13.437196 3.395201,-3.66722 7.048953,-5.260026 12.066034,-5.260026 5.356995,0 9.864751,1.753733 13.282896,5.167687 3.39272,3.388561 4.889545,8.191873 4.114051,13.201991 -0.997962,6.447388 -5.457122,10.689797 -11.204446,10.659827 -6.59161,-0.0344 -11.464281,-4.617865 -11.464999,-10.784586 -1.53e-4,-1.315918 0.21861,-2.916453 0.486139,-3.556741 0.768394,-1.839027 3.394138,-3.557365 3.394138,-2.221195 0,0.259899 -0.39724,0.653539 -0.882754,0.874751 -3.037638,1.384043 -3.012017,7.145331 0.04452,10.010881 2.002434,1.87731 4.179257,2.571676 8.070179,2.574233 3.010309,0.0021 3.779177,-0.12144 5.241677,-0.841396 4.305289,-2.1194 6.296702,-6.248939 5.490471,-11.385454 -0.90533,-5.767888 -5.028773,-9.944202 -11.436339,-11.582982 -6.33194,-1.619437 -11.68876,-0.401831 -15.946055,3.624541 -3.522796,3.331715 -5.077815,7.237219 -5.088208,12.779276 -0.01412,7.529752 3.954702,13.541102 11.574626,17.531442 4.616759,2.41766 8.250005,3.43919 15.279105,4.29587 1.224622,0.14926 15.976034,-0.12401 45.508328,-0.84305 14.776057,-0.35976 25.38926,-0.8591 27.0341,-1.27193 0.61035,-0.15319 0.9016,0.03 1.31322,0.82599 0.29091,0.56257 0.41769,1.20284 0.28173,1.42283 -0.5111,0.82698 -12.61213,1.5262 -37.97766,2.19442 -26.52073,0.69866 -38.214359,0.75081 -41.190353,0.18371 z m 203.115334,0.31472 c -1.74625,-0.0587 -10.23937,-0.27705 -18.87361,-0.48525 -26.36144,-0.63567 -39.03005,-1.34177 -39.56363,-2.20513 -0.1368,-0.22135 -0.0107,-0.86273 0.2802,-1.4253 0.41162,-0.79598 0.70287,-0.97918 1.31322,-0.82599 1.64484,0.41283 12.25804,0.91217 27.0341,1.27193 29.5323,0.71904 44.28371,0.99231 45.50833,0.84305 7.0291,-0.85668 10.66235,-1.87821 15.2791,-4.29587 7.61993,-3.99034 11.58875,-10.00169 11.57463,-17.531442 -0.0104,-5.542057 -1.56541,-9.447561 -5.08821,-12.779276 -4.25729,-4.026372 -9.61411,-5.243978 -15.94605,-3.624541 -6.40757,1.63878 -10.53101,5.815094 -11.43634,11.582982 -0.80623,5.136515 1.18518,9.266054 5.49047,11.385454 1.4625,0.719956 2.23137,0.843376 5.24168,0.841396 3.89092,-0.0025 6.06774,-0.696923 8.07017,-2.574233 3.05654,-2.86555 3.08216,-8.626838 0.0445,-10.010881 -0.48552,-0.221212 -0.88276,-0.614852 -0.88276,-0.874751 0,-1.33617 2.62574,0.382168 3.39414,2.221195 0.26753,0.640288 0.48629,2.240823 0.48614,3.556741 -7.1e-4,6.166721 -4.87339,10.750216 -11.465,10.784586 -2.98313,0.0156 -5.0678,-0.80419 -7.31661,-2.877066 -4.20271,-3.873926 -5.334,-11.52072 -2.54712,-17.216906 4.03918,-8.255776 16.3122,-11.565216 24.68743,-6.657005 2.07619,1.216731 5.22432,4.737778 6.33487,7.085281 1.88344,3.981263 2.44002,9.600988 1.42524,14.390408 -1.86563,8.805208 -9.17465,15.728238 -19.51113,18.480758 -3.18337,0.84771 -4.02382,0.91693 -11.89212,0.97937 -4.65667,0.037 -9.89542,0.0192 -11.64167,-0.0395 z M 59.333624,86.774289 c -2.337872,-1.425363 -2.761096,-4.679615 -1.338125,-10.289124 0.465025,-1.833192 1.219087,-4.113134 1.675694,-5.066537 0.805491,-1.681893 0.89316,-1.746296 2.946855,-2.164821 2.792476,-0.56908 2.998611,-0.561672 2.998611,0.107745 0,0.31344 -0.643026,2.575627 -1.428951,5.027083 -0.785922,2.451457 -1.52129,5.428389 -1.634155,6.615402 -0.180992,1.903536 -0.114317,2.249092 0.565051,2.928461 0.966915,0.966915 1.929158,0.737602 3.410853,-0.812835 0.9115,-0.953791 1.123858,-1.510471 1.301697,-3.412331 0.230699,-2.467116 2.453541,-9.47191 3.140459,-9.896447 0.764942,-0.472764 4.661909,-1.021246 4.981959,-0.701195 0.177063,0.177063 -0.321814,2.248023 -1.167419,4.846274 -2.124018,6.526382 -2.309936,9.694375 -0.605906,10.324736 1.090404,0.403366 2.414386,-0.141608 3.788628,-1.559468 1.124864,-1.160565 1.154994,-1.263022 0.759555,-2.582883 -0.696355,-2.324224 -0.512695,-5.647098 0.423206,-7.656936 1.551863,-3.332603 4.720858,-4.896615 5.542534,-2.735439 0.602594,1.584942 -0.05314,4.612943 -1.871412,8.64174 -1.227896,2.720678 -1.128187,3.456728 0.46827,3.456728 1.793681,0 3.415273,-1.226065 3.87381,-2.928945 1.461639,-5.42811 6.547223,-10.123833 10.964364,-10.123833 1.371843,0 1.908208,0.198311 2.906098,1.07447 l 1.22375,1.074466 1.90385,-1.074466 c 2.11475,-1.19349 3.08153,-1.355715 3.08153,-0.51707 0,0.306567 -0.64445,2.748851 -1.4321,5.427299 -2.26824,7.713182 -1.69741,10.011568 1.82222,7.336934 1.77553,-1.349262 2.45555,-2.576195 3.42791,-6.184861 0.68841,-2.55488 0.68837,-2.566486 -0.0108,-3.056174 -1.17016,-0.819612 -0.26988,-3.72782 1.154,-3.72782 0.8247,0 0.91816,-0.170399 1.88587,-3.438115 0.60993,-2.059595 1.01729,-2.840683 1.64864,-3.16121 0.9388,-0.476621 4.48471,-0.998887 4.77962,-0.703979 0.1047,0.104697 -0.22658,1.557267 -0.73616,3.227934 -0.50958,1.670668 -0.83126,3.191704 -0.71484,3.380084 0.11643,0.18838 0.67857,0.342508 1.2492,0.342508 0.93645,0 1.03699,0.111683 1.03211,1.146528 -0.008,1.62366 -0.36315,2.007881 -2.13685,2.309453 -1.51522,0.257623 -1.581,0.323306 -2.20047,2.197153 -1.27502,3.856845 -1.71731,6.642935 -1.22004,7.685373 0.58266,1.221454 2.01996,1.410239 3.54778,0.465994 1.89156,-1.169045 2.73785,-2.324004 3.29942,-4.502799 0.66896,-2.595509 1.77033,-4.510588 3.71981,-6.468109 1.89579,-1.903614 3.84476,-2.815813 6.03757,-2.825846 2.98322,-0.01365 4.4804,1.225088 4.4804,3.706993 0,2.477777 -1.65295,4.163797 -5.88639,6.004147 -1.46349,0.636203 -2.81502,1.310855 -3.00339,1.499224 -0.45589,0.455895 0.54515,2.378858 1.57698,3.029335 2.49499,1.572852 4.40144,0.983082 8.03076,-2.484357 3.19862,-3.055934 3.54351,-3.727425 2.49034,-4.848479 -0.91019,-0.968854 -0.93135,-2.399657 -0.0637,-4.310228 0.8016,-1.76518 1.91904,-2.604382 3.46788,-2.604382 1.57132,0 2.1064,1.108485 1.56489,3.241859 -0.21173,0.834146 -0.25149,1.650104 -0.0884,1.813239 0.66975,0.669752 3.12675,-1.277772 4.93105,-3.90857 0.71412,-1.041238 1.71415,-1.464186 2.23365,-0.944689 0.11101,0.111008 -0.65628,2.690272 -1.70509,5.7317 -1.04882,3.041424 -1.90693,5.887473 -1.90693,6.32455 0,1.112993 1.17598,2.201231 2.11372,1.956008 1.98143,-0.518152 7.72649,-7.141333 9.70849,-11.19241 1.11713,-2.283326 1.47298,-2.536374 4.04695,-2.87782 l 1.88009,-0.249404 -0.22042,1.608124 c -0.19245,1.404087 -0.0573,1.914334 1.0653,4.021518 2.0858,3.915212 1.54994,6.864283 -1.84717,10.165905 -2.17579,2.114621 -3.78945,2.828079 -6.39979,2.829574 -1.81889,0.0011 -2.326,-0.139252 -3.08681,-0.853994 -1.15558,-1.085613 -1.14227,-1.364586 0.15018,-3.14877 1.25733,-1.735692 2.29143,-1.912066 2.89579,-0.493903 1.09312,2.565089 2.50287,2.871762 4.41435,0.960289 1.11526,-1.115265 1.22484,-1.391663 1.05469,-2.660262 -0.19647,-1.464783 -2.91466,-6.449166 -3.41257,-6.257681 -0.15496,0.05959 -1.24187,1.386586 -2.41536,2.948876 -4.00993,5.338508 -9.34881,9.683083 -11.89919,9.683083 -3.40003,0 -4.23895,-3.802588 -1.91377,-8.674558 0.60812,-1.274216 1.02291,-2.399535 0.92174,-2.500704 -0.10117,-0.10117 -0.71052,-0.0099 -1.35411,0.202741 -0.80796,0.266993 -1.69675,1.098543 -2.87137,2.686435 -1.90148,2.570479 -5.84505,6.128282 -8.0261,7.240975 -1.66852,0.851214 -4.30618,1.23747 -6.12296,0.896637 -1.51635,-0.284469 -3.46927,-1.900816 -4.08101,-3.377681 -0.24147,-0.582976 -0.59386,-1.059956 -0.78309,-1.059956 -0.18922,0 -1.08277,0.651535 -1.98567,1.447856 -2.10098,1.852983 -4.63567,3.138255 -6.18895,3.138255 -1.51569,0 -3.18658,-1.327122 -3.7973,-3.01607 -0.2421,-0.669495 -0.5814,-1.217263 -0.75401,-1.217263 -0.17261,0 -1.13291,0.693995 -2.13399,1.54221 -3.23994,2.745183 -5.37418,3.364385 -6.8517,1.987864 -0.684135,-0.637371 -1.487907,-2.68043 -1.492878,-3.794657 -0.0036,-0.817027 -0.589474,-0.449993 -2.054055,1.286919 -1.554642,1.843712 -3.897206,3.210997 -5.501389,3.210997 -1.519629,0 -2.897674,-1.021493 -3.92539,-2.909746 -0.709951,-1.304417 -1.080664,-1.667136 -1.520923,-1.488126 -2.458575,0.999663 -2.594144,1.000142 -4.998765,0.01767 -0.339542,-0.138726 -1.115494,0.315112 -2.116667,1.237989 -2.030409,1.871627 -4.691866,3.134349 -6.615574,3.138748 -1.276992,0.0028 -1.747273,-0.217854 -3.079111,-1.4455 l -1.571921,-1.448946 -1.154222,0.97324 c -2.389561,2.014872 -5.178473,2.479657 -7.260871,1.210056 z m 37.294121,-4.545912 c 2.602183,-2.430805 4.564995,-9.560232 3.049322,-11.075906 -2.008596,-2.008593 -5.353272,1.367913 -6.748052,6.812276 -0.571193,2.229584 -0.482883,3.933627 0.249597,4.81621 0.670394,0.807773 2.266632,0.552041 3.449133,-0.55258 z m 33.778335,-5.430894 c 1.48106,-0.986836 2.23835,-2.347224 2.23835,-4.020943 0,-2.493934 -1.4134,-2.93872 -3.12906,-0.984691 -1.13704,1.295015 -2.37031,4.769153 -2.01847,5.68604 0.24734,0.64455 1.28485,0.401892 2.90918,-0.680406 z m 51.50523,10.243774 c -0.27555,-0.183561 -0.0936,-0.506677 0.56297,-0.999564 l 0.97014,-0.72832 -0.005,-7.467106 c -0.003,-4.106905 -0.12204,-7.637431 -0.26459,-7.845612 -0.14255,-0.208181 -0.55019,-0.486078 -0.90588,-0.617548 -0.35568,-0.13147 -0.58058,-0.437392 -0.49976,-0.679824 0.20711,-0.621365 7.02407,-0.623238 7.23115,-0.0021 0.0804,0.241339 -0.26351,0.5946 -0.76435,0.785019 l -0.91062,0.34635 v 7.699287 c 0,7.951798 0.10156,8.545953 1.46084,8.545953 0.66391,0 1.21426,0.617495 0.86322,0.968534 -0.3175,0.317496 -7.26035,0.312959 -7.73773,-0.005 z m 9.56793,0.0461 c -0.46905,-0.290032 -0.0296,-1.009579 0.61664,-1.009579 1.03676,0 1.22632,-1.409767 1.22632,-9.120177 0,-7.834174 0.0976,-8.871489 0.83517,-8.871489 0.22379,0 3.25811,2.854512 6.74292,6.34336 3.84495,3.849406 6.41518,6.172599 6.53738,5.909028 0.11074,-0.238883 0.11538,-2.652702 0.0103,-5.364039 -0.18686,-4.821551 -0.2104,-4.939326 -1.073,-5.368166 -1.63376,-0.812232 -1.06298,-1.335987 1.58012,-1.449949 2.69705,-0.116286 4.06433,0.102641 4.06433,0.650773 0,0.195136 -0.37193,0.496196 -0.82651,0.669029 -0.774,0.294273 -0.84124,0.554962 -1.05834,4.103091 -0.1275,2.083869 -0.23182,5.991641 -0.23182,8.683935 0,4.156488 -0.0849,4.927678 -0.563,5.111122 -0.40117,0.153949 -2.3541,-1.57299 -6.79454,-6.008292 -3.42736,-3.423384 -6.34901,-6.224337 -6.49256,-6.224337 -0.31196,0 -0.28593,5.727834 0.0385,8.46328 0.19653,1.657283 0.36974,2.00382 1.19983,2.400501 0.90551,0.432724 1.30572,1.091561 0.70555,1.161493 -1.33705,0.155797 -6.23329,0.09601 -6.51726,-0.07958 z m 22.65657,0.107552 c -0.66727,-0.2226 -0.35127,-1.068233 0.44125,-1.18079 0.75857,-0.107735 0.80335,-0.300376 1.0105,-4.346063 0.11921,-2.328333 0.23827,-6.262377 0.26458,-8.74232 0.0401,-3.782698 0.13894,-4.54395 0.61344,-4.726033 0.40768,-0.15644 2.28783,1.570926 6.73363,6.186434 3.39241,3.521911 6.31289,6.313946 6.48995,6.204518 0.35644,-0.220289 0.36847,-8.194036 0.0149,-9.84298 -0.15611,-0.727978 -0.4895,-1.105379 -1.10479,-1.250628 -0.48466,-0.114413 -0.8812,-0.43899 -0.8812,-0.721283 0,-0.400269 0.65292,-0.536017 2.96581,-0.61662 3.46186,-0.120643 4.2727,0.287052 2.76683,1.391172 l -0.97014,0.711309 -0.0261,6.93794 c -0.0287,7.60592 -0.25562,9.973394 -0.97909,10.213509 -0.27251,0.09045 -3.12985,-2.495071 -6.6829,-6.047172 -3.41377,-3.41285 -6.27974,-6.13228 -6.36884,-6.043179 -0.30925,0.309242 -0.007,9.479266 0.33391,10.115405 0.18829,0.351808 0.65425,0.63965 1.03548,0.63965 0.63553,0 1.03509,1.01672 0.42856,1.090531 -0.84858,0.103269 -5.7911,0.12487 -6.08569,0.0266 z M 57.694601,52.941649 C 57.58318,52.761362 57.256091,50.816674 56.967745,48.620121 56.148161,42.376777 55.114797,36.914196 53.807936,31.916709 52.31177,26.1953 51.937067,25.180149 51.487381,25.629834 51.05083,26.066386 43.038884,48.304963 43.038884,49.08014 c 0,0.804379 0.708406,1.305401 2.318815,1.639997 0.878625,0.182551 1.424312,0.50874 1.498889,0.89597 0.108613,0.564 -0.450705,0.601896 -7.582859,0.513765 -6.409273,-0.0792 -7.700122,-0.179998 -7.700122,-0.601264 0,-0.31091 0.667975,-0.676518 1.731868,-0.947917 0.952528,-0.242994 2.010737,-0.729619 2.351577,-1.081388 0.587033,-0.605857 10.362712,-24.303805 12.196881,-29.567359 1.02066,-2.929017 1.437989,-6.447555 0.886873,-7.477326 -0.50243,-0.938795 -2.496778,-1.872162 -3.991349,-1.867975 -1.510012,0.0042 -4.583292,1.757752 -5.703703,3.254361 -3.454128,4.613912 -2.987502,8.67174 1.354917,11.782529 0.577892,0.413985 0.936741,0.871916 0.79744,1.017623 -0.39968,0.418068 -2.436379,-0.577027 -3.914824,-1.912712 -2.138124,-1.931667 -2.869731,-3.643471 -2.879227,-6.736778 -0.007,-2.274771 0.136823,-2.907476 1.025401,-4.511463 2.98294,-5.3845495 9.45082,-7.983881 14.408896,-5.7906891 1.891362,0.8366389 4.98741,3.6234581 6.860853,6.1755991 2.493966,3.39746 5.054476,10.772843 6.121611,17.63289 0.242373,1.558091 0.584331,2.694257 0.790247,2.625618 0.199648,-0.06655 2.122008,-5.377937 4.271909,-11.803087 2.73051,-8.160334 4.166654,-11.956435 4.763854,-12.5921265 1.430345,-1.5225317 4.537738,-2.030694 7.05444,-1.1536352 1.618453,0.5640229 1.733621,1.168951 0.274659,1.4426537 -0.656509,0.123162 -1.531504,0.583554 -1.94443,1.023094 -0.447498,0.47634 -2.028758,4.571171 -3.914489,10.136959 -6.786879,20.031667 -10.693748,31.228773 -11.043587,31.650991 -0.429602,0.518482 -5.068012,0.616081 -5.378823,0.113179 z m 19.543456,-0.193838 c -3.024769,-0.975363 -5.271399,-4.293065 -5.271399,-7.784524 0,-3.826715 2.34146,-9.396405 5.206315,-12.384393 3.700914,-3.85998 7.668566,-5.757563 12.608961,-6.030405 3.790233,-0.209321 5.435596,0.319195 6.517346,2.093476 1.676566,2.749897 0.166448,6.167546 -3.863191,8.743059 -1.970521,1.259445 -6.204179,2.690738 -8.941353,3.022854 -2.395953,0.290714 -2.57672,0.559096 -2.928909,4.348533 -0.533636,5.741698 2.807857,6.772476 8.564802,2.642055 2.735103,-1.962348 3.445103,-2.227153 3.7614,-1.402892 0.493755,1.286704 -2.852137,4.351359 -6.647902,6.089117 -2.471586,1.131528 -6.608765,1.436152 -9.00607,0.66312 z M 84.89138,37.774568 c 3.96079,-1.798542 7.302601,-7.297525 5.13862,-8.455652 -1.540083,-0.824229 -4.353104,1.73324 -6.591274,5.992487 -1.695027,3.225642 -1.384826,3.751626 1.452654,2.463165 z m 14.636709,14.989076 c -3.013262,-0.983911 -4.721531,-3.608049 -3.923298,-6.026725 0.457666,-1.386741 2.079332,-2.45764 3.188518,-2.1056 1.369921,0.434799 1.748341,1.19459 1.748341,3.510301 0,2.484865 0.16131,2.658378 2.47123,2.658378 0.93472,0 1.68391,-0.276599 2.41466,-0.89148 2.1639,-1.820802 1.68679,-4.228112 -1.50019,-7.569323 -3.18841,-3.342724 -4.125248,-5.983718 -3.21267,-9.056714 1.11405,-3.751392 5.47302,-6.414168 11.03616,-6.741678 3.60478,-0.212218 5.78487,0.480109 6.81103,2.162974 1.84899,3.032289 -0.56386,7.215724 -3.41304,5.917553 -1.2488,-0.568992 -1.69349,-1.996494 -1.18628,-3.808078 0.54454,-1.944907 0.24205,-2.365676 -1.52984,-2.128016 -1.68155,0.225544 -3.06142,1.159859 -3.73074,2.526107 -0.77071,1.573212 -0.0422,3.218831 2.81036,6.348094 2.8835,3.163218 3.49321,4.375288 3.49321,6.94424 0,4.99921 -4.21036,8.390001 -10.72898,8.640512 -2.13187,0.08193 -3.72253,-0.04555 -4.748471,-0.380545 z m 23.969191,-0.08766 c -0.6653,-0.352693 -1.53843,-1.090612 -1.94027,-1.639817 -1.48125,-2.024415 -0.63291,-7.199016 2.49252,-15.203716 0.6873,-1.760279 1.33284,-3.637068 1.43453,-4.170644 0.1798,-0.943392 0.1406,-0.970139 -1.42182,-0.970139 -3.13093,0 -2.5751,-1.187923 1.45296,-3.105292 1.68976,-0.804326 4.10416,-2.332509 5.36534,-3.395962 3.62817,-3.059345 7.44851,-4.601625 7.97835,-3.220879 0.10731,0.279632 -0.54555,1.867172 -1.4508,3.527867 -1.9633,3.601731 -1.92639,3.64565 2.5729,3.061515 5.26253,-0.683225 4.9121,-0.442449 7.33961,-5.042863 3.25354,-6.165813 5.92817,-10.044284 9.0949,-13.1884837 3.09257,-3.0705611 4.77977,-4.0672062 7.29693,-4.3103848 1.34556,-0.1299912 1.7816,-0.00882 2.64583,0.7352312 0.96106,0.8274099 1.03351,1.0626249 1.01701,3.3018676 -0.0152,2.0593307 -0.20526,2.7770677 -1.30325,4.9207747 -2.31225,4.514432 -6.47266,9.179763 -10.722,12.023275 -1.78311,1.193193 -1.83878,1.285307 -3.43696,5.687113 -2.11012,5.811844 -3.26326,9.72078 -3.9521,13.396887 -0.8413,4.489679 -0.26538,5.55075 2.14597,3.953778 1.33905,-0.88682 1.94027,-0.892384 1.94027,-0.01796 0,0.879203 -1.92359,2.347775 -4.21627,3.218924 -1.96075,0.745032 -5.958,0.923329 -7.09215,0.31635 -2.62267,-1.403607 -2.17796,-7.106736 1.36118,-17.456556 l 1.74763,-5.110761 -0.92727,0.02338 c -0.51001,0.01286 -2.59416,0.211882 -4.63145,0.44228 l -3.70416,0.418906 -0.77261,1.586189 c -1.48687,3.052624 -4.03109,11.28929 -4.23372,13.706294 -0.16614,1.981729 -0.095,2.483707 0.42567,3.0044 0.7303,0.730292 1.89437,0.549381 3.4102,-0.529989 1.00905,-0.718502 1.69962,-0.636457 1.69962,0.20192 0,0.679168 -2.5875,2.909972 -4.13728,3.566936 -2.12671,0.90153 -6.02233,1.041932 -7.47931,0.269557 z m 35.25223,-32.799677 c 2.65449,-2.837664 4.44616,-5.56651 5.35784,-8.160401 1.11942,-3.1849516 0.15028,-3.9088375 -1.94927,-1.455982 -1.17933,1.377783 -6.23032,10.76125 -6.23032,11.574369 0,0.801917 0.68394,0.327337 2.82175,-1.957986 z m 2.82041,33.084242 c -3.99646,-1.309314 -5.735,-3.788114 -5.735,-8.176958 0,-9.63433 8.77174,-18.303981 18.53681,-18.321069 4.04001,-0.0071 6.25047,1.517716 6.25047,4.3116 0,4.085214 -4.62871,7.842825 -11.37836,9.237003 -1.48665,0.307075 -3.01783,0.55832 -3.40261,0.55832 -0.92295,0 -1.00523,0.174459 -1.45776,3.091131 -1.03646,6.680122 2.4834,8.138808 8.69659,3.604006 1.33478,-0.974207 2.66316,-1.726393 2.95198,-1.671522 2.04595,0.388705 -1.35371,4.19347 -5.5111,6.167808 -2.22916,1.058623 -3.15177,1.295947 -5.37874,1.383588 -1.47843,0.05818 -3.08595,-0.02459 -3.57228,-0.183907 z m 7.05784,-15.240377 c 2.96533,-1.339508 5.64444,-4.662995 5.64444,-7.002038 0,-1.24583 -0.86239,-1.847603 -2.02079,-1.4101 -1.32974,0.502216 -3.81738,3.401876 -5.16348,6.0187 -1.70214,3.30896 -1.4285,3.7343 1.53983,2.393438 z m 16.25285,14.953886 c -0.6653,-0.351635 -1.53843,-1.089095 -1.94028,-1.638801 -1.51132,-2.067401 -0.59376,-7.328171 2.77806,-15.927787 0.83815,-2.13765 1.45376,-4.005698 1.36804,-4.151219 -0.0857,-0.145521 -0.85151,-0.264583 -1.70173,-0.264583 -2.92182,0 -2.23693,-1.536075 1.29245,-2.898707 1.27578,-0.492554 3.20323,-1.731183 4.96151,-3.188394 4.28445,-3.550813 8.02994,-5.129848 8.60617,-3.628216 0.10875,0.283382 -0.46429,1.714514 -1.27342,3.180295 -0.80913,1.46578 -1.4089,2.851779 -1.33283,3.079997 0.0897,0.269151 1.122,0.422226 2.93805,0.435677 2.52604,0.01871 2.80966,0.08996 2.90124,0.728852 0.0558,0.389464 -0.12929,1.024464 -0.41139,1.411111 -0.42979,0.589089 -1.04643,0.731576 -3.80567,0.879385 l -3.29278,0.176389 -0.7594,1.587499 c -1.55059,3.241478 -4.04227,11.266488 -4.24067,13.658067 -0.17746,2.139174 -0.11838,2.46543 0.55644,3.072384 0.74653,0.671445 0.77694,0.66996 2.71354,-0.132715 2.50685,-1.039033 3.10993,-0.608796 1.58352,1.129686 -2.2412,2.552583 -8.24018,3.918468 -10.94085,2.49108 z m 20.90867,0.08919 c -4.30059,-1.344994 -6.00113,-4.842866 -5.06181,-10.411763 0.999,-5.922708 5.26238,-11.634329 10.67466,-14.30075 2.47566,-1.219661 3.05921,-1.36135 6.17361,-1.498959 3.23722,-0.143037 3.55332,-0.0932 5.37454,0.847432 2.67232,1.380203 3.8858,3.664759 3.8858,7.315574 0,5.071878 -1.88678,9.505342 -5.64444,13.263 -4.35958,4.359586 -10.58224,6.292945 -15.40236,4.785466 z m 6.6089,-3.616187 c 2.8972,-2.617446 6.67679,-12.011378 6.67679,-16.594735 0,-2.464486 -0.43838,-3.271765 -1.77669,-3.271765 -1.5312,0 -3.50803,2.226968 -5.41679,6.102198 -3.75021,7.613843 -4.52785,15.064468 -1.5723,15.064468 0.35743,0 1.29747,-0.585075 2.08899,-1.300166 z m 17.3528,3.747431 c -2.09716,-0.639865 -1.94403,-2.132743 0.68924,-6.719351 3.93459,-6.853255 5.11041,-16.79593 1.89072,-15.987839 -0.5448,0.136735 -0.88134,0.0263 -1.01985,-0.334668 -0.47711,-1.24332 3.77685,-3.394296 6.71285,-3.394296 3.32605,0 4.92802,2.000129 4.48066,5.594297 l -0.24775,1.990425 2.53972,-2.717645 c 3.47576,-3.71926 5.46747,-4.690688 9.61729,-4.690688 2.53411,0 3.22635,0.124246 4.02967,0.72326 1.83041,1.364896 1.82437,1.417779 -0.82683,7.241724 -3.90847,8.585772 -5.49751,14.142946 -4.18782,14.645521 0.3171,0.12168 0.98501,-0.04641 1.48426,-0.373525 1.70004,-1.11391 2.60237,0.09564 1.11426,1.49364 -1.58235,1.486542 -4.76619,2.643163 -7.3963,2.686914 -2.27374,0.03782 -2.51468,-0.03136 -3.30435,-0.949011 -0.61606,-0.715895 -0.85178,-1.411167 -0.85178,-2.512406 0,-2.444383 1.55302,-7.888555 3.7191,-13.037473 1.10568,-2.628254 1.91681,-5.022332 1.80251,-5.320172 -0.58857,-1.533813 -2.97762,0.173373 -6.43029,4.595012 -2.06914,2.649837 -2.48156,3.460884 -3.88749,7.645135 -1.77061,5.269527 -3.05311,7.825984 -4.43797,8.846386 -1.09209,0.804686 -3.80526,1.088739 -5.48985,0.57476 z"
       style="fill:#eaadad;stroke-width:1;filter:url(#filter1556);fill-opacity:1" />
  </g>
</svg>
