<?xml version="1.0" encoding="UTF-8" standalone="no"?>
<svg
   xmlns:dc="http://purl.org/dc/elements/1.1/"
   xmlns:cc="http://creativecommons.org/ns#"
   xmlns:rdf="http://www.w3.org/1999/02/22-rdf-syntax-ns#"
   xmlns:svg="http://www.w3.org/2000/svg"
   xmlns="http://www.w3.org/2000/svg"
   xmlns:sodipodi="http://sodipodi.sourceforge.net/DTD/sodipodi-0.dtd"
   xmlns:inkscape="http://www.inkscape.org/namespaces/inkscape"
   version="1.1"
   x="0px"
   y="0px"
   viewBox="0 0 28.1 30"
   enable-background="new 0 0 32 32"
   xml:space="preserve"
   id="svg14"
   sodipodi:docname="noun_Time_2098603.svg"
   width="28.1"
   height="30"
   inkscape:version="0.92.2 5c3e80d, 2017-08-06"><metadata
     id="metadata20"><rdf:RDF><cc:Work
         rdf:about=""><dc:format>image/svg+xml</dc:format><dc:type
           rdf:resource="http://purl.org/dc/dcmitype/StillImage" /><dc:title></dc:title></cc:Work></rdf:RDF></metadata><defs
     id="defs18" /><sodipodi:namedview
     pagecolor="#ffffff"
     bordercolor="#666666"
     borderopacity="1"
     objecttolerance="10"
     gridtolerance="10"
     guidetolerance="10"
     inkscape:pageopacity="0"
     inkscape:pageshadow="2"
     inkscape:window-width="740"
     inkscape:window-height="480"
     id="namedview16"
     showgrid="false"
     fit-margin-top="0"
     fit-margin-left="0"
     fit-margin-right="0"
     fit-margin-bottom="0"
     inkscape:zoom="5.9"
     inkscape:cx="19.789323"
     inkscape:cy="11.569958"
     inkscape:window-x="0"
     inkscape:window-y="0"
     inkscape:window-maximized="0"
     inkscape:current-layer="svg14" /><g
     id="g8"
     transform="translate(-3,-1)"><g
       id="g6"><path
         d="M 30.3,20.8 C 30,20.1 29.5,19.5 29,19 V 10 4 C 29,3.4 28.6,3 28,3 H 24 V 2 C 24,1.4 23.6,1 23,1 h -3.3 c -0.6,0 -1,0.4 -1,1 V 3 H 13.3 V 2 c 0,-0.6 -0.4,-1 -1,-1 H 9 C 8.4,1 8,1.4 8,2 V 3 H 4 C 3.4,3 3,3.4 3,4 v 6 16 c 0,0.6 0.4,1 1,1 h 13.8 c 1.1,2.4 3.5,4 6.3,4 3.9,0 7,-3.1 7,-7 0,-1.1 -0.3,-2.3 -0.8,-3.2 z M 20.7,3 H 22 V 4 6 H 20.7 V 4 Z M 10,3 h 1.3 V 4 6 H 10 V 4 Z M 5,5 h 3 v 2 c 0,0.6 0.4,1 1,1 h 3.3 c 0.6,0 1,-0.4 1,-1 V 5 h 5.4 v 2 c 0,0.6 0.4,1 1,1 H 23 c 0.6,0 1,-0.4 1,-1 V 5 h 3 V 9 H 5 Z M 5,25 V 11 h 22 v 6.7 c -1.9,-0.9 -4.3,-0.8 -6.2,0.2 -1.3,0.6 -2.3,1.7 -2.9,2.9 -0.5,1 -0.8,2.1 -0.8,3.3 0,0.3 0,0.7 0.1,1 H 5 Z m 19.1,4 c -2.8,0 -5,-2.2 -5,-5 0,-0.8 0.2,-1.6 0.6,-2.3 0.5,-0.9 1.2,-1.6 2.1,-2.1 0.7,-0.4 1.5,-0.6 2.3,-0.6 0.8,0 1.6,0.2 2.3,0.6 0.9,0.5 1.6,1.2 2.1,2.1 0.4,0.7 0.6,1.5 0.6,2.3 0,2.8 -2.3,5 -5,5 z"
         id="path2"
         inkscape:connector-curvature="0" /><path
         d="m 25.1,23.6 v -3 c 0,-0.6 -0.4,-1 -1,-1 -0.6,0 -1,0.4 -1,1 V 24 c 0,0 0,0 0,0 0,0.1 0,0.3 0.1,0.4 0.1,0.1 0.1,0.2 0.2,0.3 l 2,2 c 0.2,0.2 0.5,0.3 0.7,0.3 0.2,0 0.5,-0.1 0.7,-0.3 0.4,-0.4 0.4,-1 0,-1.4 z"
         id="path4"
         inkscape:connector-curvature="0" /></g></g></svg>