<?xml version="1.0" encoding="UTF-8" standalone="no"?>
<svg
   xmlns:dc="http://purl.org/dc/elements/1.1/"
   xmlns:cc="http://creativecommons.org/ns#"
   xmlns:rdf="http://www.w3.org/1999/02/22-rdf-syntax-ns#"
   xmlns:svg="http://www.w3.org/2000/svg"
   xmlns="http://www.w3.org/2000/svg"
   xmlns:sodipodi="http://sodipodi.sourceforge.net/DTD/sodipodi-0.dtd"
   xmlns:inkscape="http://www.inkscape.org/namespaces/inkscape"
   version="1.1"
   x="0px"
   y="0px"
   viewBox="0 0 60.236 74.765999"
   enable-background="new 0 0 96 96"
   xml:space="preserve"
   id="svg12"
   sodipodi:docname="noun_Location_2096895.svg"
   width="60.236"
   height="74.765999"
   inkscape:version="0.92.2 5c3e80d, 2017-08-06"><metadata
     id="metadata18"><rdf:RDF><cc:Work
         rdf:about=""><dc:format>image/svg+xml</dc:format><dc:type
           rdf:resource="http://purl.org/dc/dcmitype/StillImage" /><dc:title></dc:title></cc:Work></rdf:RDF></metadata><defs
     id="defs16" /><sodipodi:namedview
     pagecolor="#ffffff"
     bordercolor="#666666"
     borderopacity="1"
     objecttolerance="10"
     gridtolerance="10"
     guidetolerance="10"
     inkscape:pageopacity="0"
     inkscape:pageshadow="2"
     inkscape:window-width="740"
     inkscape:window-height="480"
     id="namedview14"
     showgrid="false"
     fit-margin-top="0"
     fit-margin-left="0"
     fit-margin-right="0"
     fit-margin-bottom="0"
     inkscape:zoom="1.9666667"
     inkscape:cx="38.599597"
     inkscape:cy="25.383"
     inkscape:window-x="0"
     inkscape:window-y="0"
     inkscape:window-maximized="0"
     inkscape:current-layer="svg12" /><g
     id="g6"
     transform="translate(-17.883,-10.617)"><path
       d="m 48,70.201 0.41,-0.588 C 49.21,68.467 68.014,41.438 68.014,30.629 68.014,19.595 59.035,10.617 48,10.617 c -11.035,0 -20.013,8.978 -20.013,20.012 0,10.81 18.802,37.84 19.603,38.984 z M 41.022,30.629 c 0,-3.848 3.13,-6.978 6.978,-6.978 3.848,0 6.979,3.13 6.979,6.978 0,3.848 -3.131,6.979 -6.979,6.979 -3.848,0 -6.978,-3.131 -6.978,-6.979 z"
       id="path2"
       inkscape:connector-curvature="0" /><path
       d="m 64.478,53.336 c -0.308,-0.116 -0.651,-0.074 -0.922,0.113 -0.27,0.187 -0.431,0.494 -0.431,0.822 v 1.043 c 0,0.413 0.254,0.784 0.64,0.933 7.109,2.743 11.354,7.117 11.354,11.702 0,7.959 -12.165,14.434 -27.118,14.434 -14.953,0 -27.118,-6.475 -27.118,-14.434 0,-4.585 4.244,-8.959 11.353,-11.702 0.386,-0.148 0.64,-0.52 0.64,-0.933 v -1.043 c 0,-0.328 -0.161,-0.636 -0.431,-0.822 -0.271,-0.187 -0.614,-0.229 -0.921,-0.113 -8.542,3.219 -13.641,8.682 -13.641,14.613 0,9.613 13.511,17.434 30.118,17.434 16.607,0 30.118,-7.82 30.118,-17.434 -0.001,-5.931 -5.1,-11.394 -13.641,-14.613 z"
       id="path4"
       inkscape:connector-curvature="0" /></g></svg>